<svg width="66.000000" height="53.000000" viewBox="0 0 66 53" fill="none" xmlns="http://www.w3.org/2000/svg" xmlns:xlink="http://www.w3.org/1999/xlink">
	<desc>
			Created with Pixso.
	</desc>
	<defs/>
	<path id="Vector" d="M59.3999 51.2334L59.3999 39.75C59.3999 32.4438 51.998 26.5 42.8999 26.5L41.7021 26.5C42.0938 26.2236 42.4624 25.9287 42.811 25.6167L44 25.6167C47.0327 25.6167 49.5 23.6353 49.5 21.2002L49.5 19.6436C50.8257 18.9297 51.7002 17.7163 51.7002 16.3418C51.7002 14.9619 50.8188 13.7466 49.4868 13.0337C49.3403 5.82812 42.0078 0 33 0C23.9922 0 16.6597 5.82812 16.5132 13.0337C15.1812 13.7466 14.2998 14.9619 14.2998 16.3418C14.2998 18.5332 16.521 20.3169 19.25 20.3169L19.999 20.3169C20.5137 22.7642 22.0713 24.9258 24.2988 26.5L23.1001 26.5C14.002 26.5 6.6001 32.4438 6.6001 39.75L6.6001 51.2334L0 51.2334L0 53L7.7002 53L13.2002 53L52.7998 53L58.2998 53L66 53L66 51.2334L59.3999 51.2334ZM47.2998 21.2002C47.2998 22.54 46.0503 23.6387 44.4409 23.814C45.2036 22.7495 45.7378 21.5703 46.001 20.3169L46.75 20.3169C46.938 20.3169 47.1172 20.2886 47.2998 20.2715L47.2998 21.2002ZM49.5 16.3418C49.5 17.5591 48.2671 18.5498 46.75 18.5498L46.2002 18.5498L46.2002 14.1333L46.75 14.1333C48.2671 14.1333 49.5 15.1245 49.5 16.3418ZM19.7998 18.5498L19.25 18.5498C17.7329 18.5498 16.5 17.5591 16.5 16.3418C16.5 15.1245 17.7329 14.1333 19.25 14.1333L19.7998 14.1333L19.7998 18.5498ZM19.25 12.3667C19.0796 12.3667 18.9189 12.3931 18.7529 12.4072C19.2939 6.46875 25.4692 1.7666 33 1.7666C40.5308 1.7666 46.7061 6.46875 47.2471 12.4072C47.0811 12.3931 46.9204 12.3667 46.75 12.3667L46.001 12.3667C44.9492 7.36182 39.5273 3.5332 33 3.5332C26.4727 3.5332 21.0508 7.36182 19.999 12.3667L19.25 12.3667ZM43.999 14.1113C36.0601 13.8867 30.7998 11.2803 30.7998 8.8335C30.7998 8.3457 30.3081 7.9502 29.7002 7.9502C29.0918 7.9502 28.6001 8.3457 28.6001 8.8335C28.6001 11.041 25.7578 12.8701 22.064 13.1943C22.6499 8.76367 27.3306 5.2998 33 5.2998C39.0557 5.2998 43.9834 9.25098 43.999 14.1113ZM22 18.5498L22 14.9673C25.4351 14.728 28.3501 13.3975 29.8057 11.5347C32.1069 13.9834 37.4849 15.7065 44 15.8823L44 18.5498C44 20.54 43.166 22.3711 41.7793 23.8501L33 23.8501L33 25.6167L39.5713 25.6167C38.9399 25.9966 38.2593 26.3232 37.5332 26.5884C34.6465 27.6411 31.3521 27.6411 28.4648 26.5884C24.6587 25.1978 22 22.1221 22 18.5498ZM29.6001 28.7808C30.6865 29.0142 31.8232 29.1499 33 29.1499C34.1768 29.1499 35.3135 29.0142 36.3999 28.7808L33 34.2417L29.6001 28.7808ZM31.2202 35.3335L29.2798 35.3335L24.8799 28.2666L26.8203 28.2666L31.2202 35.3335ZM39.1797 28.2666L41.1201 28.2666L36.7202 35.3335L34.7798 35.3335L39.1797 28.2666ZM12.1001 39.75L12.1001 51.2334L8.7998 51.2334L8.7998 39.75C8.7998 33.5977 14.8608 28.5747 22.4365 28.2939L26.8203 35.3335L17.6001 35.3335C14.5674 35.3335 12.1001 37.3145 12.1001 39.75ZM51.7002 51.2334L14.2998 51.2334L14.2998 39.75C14.2998 38.2891 15.7808 37.1001 17.6001 37.1001L28.6001 37.1001L33 37.1001L37.3999 37.1001L48.3999 37.1001C50.2192 37.1001 51.7002 38.2891 51.7002 39.75L51.7002 51.2334ZM57.2002 51.2334L53.8999 51.2334L53.8999 39.75C53.8999 37.3145 51.4326 35.3335 48.3999 35.3335L39.1797 35.3335L43.5635 28.2939C51.1392 28.5747 57.2002 33.5977 57.2002 39.75L57.2002 51.2334Z" fill="#0C1A37" fill-opacity="1.000000" fill-rule="nonzero"/>
</svg>
