<svg width="22.156250" height="42.076172" viewBox="0 0 22.1562 42.0762" fill="none" xmlns="http://www.w3.org/2000/svg" xmlns:xlink="http://www.w3.org/1999/xlink">
	<path id="Vector" d="M19.2988 0.498535L0.513672 19.769C0.185547 20.1079 0 20.5615 0 21.0342C0 21.5068 0.185547 21.9609 0.513672 22.2993L19.2988 41.5771C19.4531 41.7354 19.6367 41.8604 19.8398 41.9463C20.043 42.0317 20.2617 42.0762 20.4805 42.0762C20.7012 42.0762 20.9199 42.0317 21.123 41.9463C21.3262 41.8604 21.5098 41.7354 21.6621 41.5771C21.9785 41.2534 22.1562 40.8188 22.1562 40.3667C22.1562 39.9141 21.9785 39.4795 21.6621 39.1558L3.99805 21.0342L21.6621 2.9165C21.9785 2.59326 22.1543 2.15918 22.1543 1.70752C22.1543 1.25586 21.9785 0.822266 21.6621 0.498535C21.5098 0.34082 21.3262 0.215332 21.123 0.129883C20.9199 0.0439453 20.7012 0 20.4805 0C20.2617 0 20.043 0.0439453 19.8398 0.129883C19.6367 0.215332 19.4531 0.34082 19.2988 0.498535Z" fill="#0C1A37" fill-opacity="1.000000" fill-rule="nonzero"/>
</svg>
