<svg width="22.156250" height="42.076172" viewBox="0 0 22.1562 42.0762" fill="none" xmlns="http://www.w3.org/2000/svg" xmlns:xlink="http://www.w3.org/1999/xlink">
	<path id="Vector" d="M2.85742 41.5776L21.6426 22.3071C21.9707 21.9683 22.1562 21.5146 22.1562 21.042C22.1562 20.5693 21.9707 20.1152 21.6426 19.7769L2.85742 0.499023C2.70312 0.34082 2.51953 0.21582 2.31641 0.129883C2.11328 0.0444336 1.89453 0 1.67578 0C1.45508 0 1.23633 0.0444336 1.0332 0.129883C0.830078 0.21582 0.646484 0.34082 0.494141 0.499023C0.177734 0.822754 0 1.25732 0 1.70947C0 2.16211 0.177734 2.59668 0.494141 2.92041L18.1582 21.042L0.494141 39.1597C0.177734 39.4829 0.00195312 39.917 0.00195312 40.3687C0.00195312 40.8203 0.177734 41.2539 0.494141 41.5776C0.646484 41.7354 0.830078 41.8608 1.0332 41.9463C1.23633 42.0322 1.45508 42.0762 1.67578 42.0762C1.89453 42.0762 2.11328 42.0322 2.31641 41.9463C2.51953 41.8608 2.70312 41.7354 2.85742 41.5776Z" fill="#0C1A37" fill-opacity="1.000000" fill-rule="nonzero"/>
</svg>
