<svg width="9.550781" height="18.136230" viewBox="0 0 9.55078 18.1362" fill="none" xmlns="http://www.w3.org/2000/svg" xmlns:xlink="http://www.w3.org/1999/xlink">
	<desc>
			Created with Pixso.
	</desc>
	<defs/>
	<path id="Vector" d="M1.23242 17.9214L9.32812 9.61523C9.4707 9.46924 9.55078 9.27344 9.55078 9.06982C9.55078 8.86572 9.4707 8.67041 9.32812 8.52441L1.23242 0.214844C1.16602 0.146973 1.08594 0.0927734 1 0.0561523C0.912109 0.019043 0.818359 0 0.722656 0C0.626953 0 0.533203 0.019043 0.447266 0.0561523C0.359375 0.0927734 0.279297 0.146973 0.212891 0.214844C0.0761719 0.354492 0 0.541992 0 0.736816C0 0.932129 0.0761719 1.11914 0.212891 1.25879L7.82812 9.06982L0.212891 16.8789C0.078125 17.0186 0.00195312 17.2056 0.00195312 17.4004C0.00195312 17.5947 0.078125 17.7817 0.212891 17.9214C0.279297 17.9893 0.359375 18.0435 0.447266 18.0801C0.533203 18.1172 0.626953 18.1362 0.722656 18.1362C0.818359 18.1362 0.912109 18.1172 1 18.0801C1.08594 18.0435 1.16602 17.9893 1.23242 17.9214Z" fill="#0C1A37" fill-opacity="1.000000" fill-rule="nonzero"/>
</svg>
