<svg width="17" height="8" viewBox="0 0 17 8" fill="none" xmlns="http://www.w3.org/2000/svg">
<path d="M0.709206 1.19246L8.01871 7.34608C8.14709 7.45416 8.31929 7.51465 8.49858 7.51465C8.67787 7.51465 8.85007 7.45416 8.97845 7.34608L16.2907 1.19246C16.3506 1.14211 16.3982 1.08192 16.4307 1.01543C16.4632 0.948938 16.4799 0.877501 16.4799 0.805332C16.4799 0.733163 16.4632 0.661725 16.4307 0.595235C16.3982 0.528746 16.3506 0.468552 16.2907 0.418207C16.1679 0.314631 16.0031 0.256644 15.8315 0.256644C15.6598 0.256644 15.495 0.314631 15.3722 0.418207L8.49858 6.20489L1.62633 0.418207C1.50361 0.314986 1.33907 0.257224 1.16777 0.257224C0.996463 0.257224 0.831927 0.314986 0.709206 0.418207C0.649334 0.468552 0.601747 0.528746 0.569253 0.595235C0.53676 0.661725 0.52002 0.733163 0.52002 0.805332C0.52002 0.877501 0.53676 0.948938 0.569253 1.01543C0.601747 1.08192 0.649334 1.14211 0.709206 1.19246Z" fill="#0C1A37"/>
</svg>
