<svg width="26.116211" height="13.751953" viewBox="0 0 26.1162 13.752" fill="none" xmlns="http://www.w3.org/2000/svg" xmlns:xlink="http://www.w3.org/1999/xlink">
	<desc>
			Created with Pixso.
	</desc>
	<defs/>
	<path id="Vector" d="M25.8066 11.979L13.8457 0.319336C13.6355 0.114746 13.3538 0 13.0603 0C12.7671 0 12.4851 0.114746 12.2751 0.319336L0.30957 11.979C0.21167 12.0742 0.133789 12.1885 0.0805664 12.3145C0.0273438 12.4404 0 12.5757 0 12.7124C0 12.8491 0.0273438 12.9844 0.0805664 13.1104C0.133789 13.2363 0.21167 13.3506 0.30957 13.4458C0.510498 13.6421 0.780273 13.752 1.06104 13.752C1.34204 13.752 1.61182 13.6421 1.81274 13.4458L13.0603 2.48145L24.3059 13.4458C24.5066 13.6416 24.7759 13.751 25.0562 13.751C25.3367 13.751 25.6057 13.6416 25.8066 13.4458C25.9045 13.3506 25.9824 13.2363 26.0356 13.1104C26.0889 12.9844 26.1162 12.8491 26.1162 12.7124C26.1162 12.5757 26.0889 12.4404 26.0356 12.3145C25.9824 12.1885 25.9045 12.0742 25.8066 11.979Z" fill="#0C1A37" fill-opacity="1.000000" fill-rule="nonzero"/>
</svg>
