<svg width="26.116211" height="13.751953" viewBox="0 0 26.1162 13.752" fill="none" xmlns="http://www.w3.org/2000/svg" xmlns:xlink="http://www.w3.org/1999/xlink">
	<desc>
			Created with Pixso.
	</desc>
	<defs/>
	<path id="Vector" d="M0.30957 1.77295L12.2705 13.4326C12.4807 13.6372 12.7625 13.752 13.0559 13.752C13.3491 13.752 13.6311 13.6372 13.8411 13.4326L25.8066 1.77295C25.9045 1.67773 25.9824 1.56348 26.0356 1.4375C26.0889 1.31152 26.1162 1.17627 26.1162 1.03955C26.1162 0.902832 26.0889 0.767578 26.0356 0.641602C25.9824 0.515625 25.9045 0.401367 25.8066 0.306152C25.6057 0.109863 25.3359 0 25.0552 0C24.7742 0 24.5044 0.109863 24.3035 0.306152L13.0559 11.2705L1.8103 0.306152C1.60962 0.110352 1.34033 0.000976562 1.06006 0.000976562C0.779541 0.000976562 0.510498 0.110352 0.30957 0.306152C0.21167 0.401367 0.133789 0.515625 0.0805664 0.641602C0.0273438 0.767578 0 0.902832 0 1.03955C0 1.17627 0.0273438 1.31152 0.0805664 1.4375C0.133789 1.56348 0.21167 1.67773 0.30957 1.77295Z" fill="#0C1A37" fill-opacity="1.000000" fill-rule="nonzero"/>
</svg>
