<svg width="22.000000" height="19.000000" viewBox="0 0 22 19" fill="none" xmlns="http://www.w3.org/2000/svg" xmlns:xlink="http://www.w3.org/1999/xlink">
	<desc>
			Created with Pixso.
	</desc>
	<defs>
		<clipPath id="clip201_1289">
			<rect id="ep:arrow-left" width="19.000000" height="22.000000" transform="translate(0.000000 19.000000) rotate(-90.000000)" fill="white" fill-opacity="0"/>
		</clipPath>
	</defs>
	<rect id="ep:arrow-left" width="19.000000" height="22.000000" transform="translate(0.000000 19.000000) rotate(-90.000000)" fill="#FFFFFF" fill-opacity="0"/>
	<g clip-path="url(#clip201_1289)">
		<path id="Vector" d="M3.20898 7.69238L10.5186 13.8462C10.6465 13.9541 10.8184 14.0146 10.998 14.0146C11.1777 14.0146 11.3496 13.9541 11.4775 13.8462L18.79 7.69238C18.8496 7.64209 18.8975 7.58203 18.9297 7.51562C18.9629 7.44873 18.9795 7.37744 18.9795 7.30518C18.9795 7.2334 18.9629 7.16162 18.9297 7.09521C18.8975 7.02881 18.8496 6.96875 18.79 6.91797C18.667 6.81445 18.5029 6.75684 18.3311 6.75684C18.1592 6.75684 17.9941 6.81445 17.8721 6.91797L10.998 12.7051L4.12598 6.91797C4.00293 6.81494 3.83887 6.75732 3.66699 6.75732C3.49609 6.75732 3.33105 6.81494 3.20898 6.91797C3.14844 6.96875 3.10156 7.02881 3.06836 7.09521C3.03613 7.16162 3.01953 7.2334 3.01953 7.30518C3.01953 7.37744 3.03613 7.44873 3.06836 7.51562C3.10156 7.58203 3.14844 7.64209 3.20898 7.69238Z" fill="#0C1A37" fill-opacity="1.000000" fill-rule="nonzero"/>
	</g>
</svg>
