<svg width="14.668945" height="16.502441" viewBox="0 0 14.6689 16.5024" fill="none" xmlns="http://www.w3.org/2000/svg" xmlns:xlink="http://www.w3.org/1999/xlink">
	<desc>
			Created with Pixso.
	</desc>
	<defs/>
	<path id="Vector" d="M9.16797 8.25L9.16797 15.4731C9.2041 15.7485 9.1123 16.0415 8.90137 16.2344C8.81738 16.3193 8.7168 16.3867 8.60547 16.4326C8.49414 16.4785 8.37598 16.5024 8.25586 16.5024C8.13574 16.5024 8.0166 16.4785 7.90625 16.4326C7.79492 16.3867 7.69434 16.3193 7.60938 16.2344L5.7666 14.3916C5.66699 14.2939 5.59082 14.1743 5.54492 14.0425C5.49902 13.9106 5.4834 13.7695 5.50098 13.6309L5.50098 8.25L5.47363 8.25L0.193359 1.48486C0.0449219 1.29395 -0.0224609 1.05176 0.00683594 0.811035C0.0361328 0.570801 0.15918 0.351562 0.349609 0.20166C0.523438 0.0732422 0.71582 0 0.917969 0L13.751 0C13.9531 0 14.1455 0.0732422 14.3193 0.20166C14.5098 0.351562 14.6328 0.570801 14.6621 0.811035C14.6914 1.05176 14.624 1.29395 14.4756 1.48486L9.19531 8.25L9.16797 8.25Z" fill="#0C1A37" fill-opacity="1.000000" fill-rule="nonzero"/>
</svg>
