<svg width="25.000000" height="25.000000" viewBox="0 0 25 25" fill="none" xmlns="http://www.w3.org/2000/svg" xmlns:xlink="http://www.w3.org/1999/xlink">
	<desc>
			Created with Pixso.
	</desc>
	<defs/>
	<path id="Vector" d="M2 0C0.894531 0 0 0.895447 0 2L0 23C0 24.1046 0.894531 25 2 25L23 25C24.1055 25 25 24.1046 25 23L25 2C25 0.895447 24.1055 0 23 0L2 0ZM4 7C4.13867 13.8709 7.45117 18 13.2598 18L13.5879 18L13.5879 14.0691C14.6133 14.2029 15.5762 14.6472 16.3594 15.3465C17.1406 16.0458 17.707 16.9688 17.9844 18L21 18C20.6895 16.8128 20.1406 15.7073 19.3887 14.7564C18.6367 13.8055 17.6973 13.0308 16.6367 12.4835C17.5879 11.8845 18.4102 11.0883 19.0508 10.1448C19.6914 9.20129 20.1387 8.13068 20.3633 7L17.623 7C17.0293 9.18018 15.2656 11.1622 13.5879 11.3493L13.5879 7L10.8496 7L10.8496 14.6196C9.15039 14.1792 7.00586 12.043 6.91016 7L4 7Z" fill="#FAFAFA" fill-opacity="1.000000" fill-rule="evenodd"/>
</svg>
