<svg width="25.000000" height="25.000000" viewBox="0 0 25 25" fill="none" xmlns="http://www.w3.org/2000/svg" xmlns:xlink="http://www.w3.org/1999/xlink">
	<desc>
			Created with Pixso.
	</desc>
	<defs/>
	<path id="Vector" d="M2 0C0.894531 0 0 0.895447 0 2L0 23C0 24.1046 0.894531 25 2 25L23 25C24.1055 25 25 24.1046 25 23L25 2C25 0.895447 24.1055 0 23 0L2 0ZM19.9922 6.91864C20.1152 5.55206 18.6367 6.11475 18.6367 6.11475C17.543 6.55585 16.416 7.00409 15.2773 7.45721C11.7441 8.86212 8.0957 10.3135 4.98633 11.7419C3.30078 12.3449 4.28711 12.9478 4.28711 12.9478L6.95898 13.7516C8.19336 14.1134 8.85156 13.7114 8.85156 13.7114L14.6074 9.89301C16.6621 8.52643 16.1699 9.65179 15.6758 10.1342L11.3594 14.1536C10.7012 14.7163 11.0293 15.1986 11.3184 15.4398C12.1328 16.1414 14.1406 17.4252 15.0156 17.9857C15.2441 18.1316 15.3945 18.2285 15.4297 18.2533C15.6348 18.4141 16.7441 19.1376 17.4844 18.9769C18.2246 18.8161 18.3066 17.8916 18.3066 17.8916L19.293 11.5812C19.4414 10.4856 19.6113 9.43262 19.748 8.59161C19.875 7.79718 19.9727 7.19202 19.9922 6.91864Z" fill="#FAFAFA" fill-opacity="1.000000" fill-rule="evenodd"/>
</svg>
