<svg width="176.537109" height="26.419922" viewBox="0 0 176.537 26.4199" fill="none" xmlns="http://www.w3.org/2000/svg" xmlns:xlink="http://www.w3.org/1999/xlink">
	<path id="Ком Спан" d="M22.4648 26.0684L14.6074 26.0684L6.97852 13.043L6.97852 26.0684L0 26.0684L0 0.369141L6.97852 0.369141L6.97852 12.8145L14.3262 0.369141L21.9551 0.369141L14.0273 12.6387L22.4648 26.0684ZM43.6992 16.0664Q43.6992 18.5625 43.0137 20.4961Q42.3281 22.4297 41.0273 23.748Q39.7266 25.0664 37.8809 25.7432Q36.0352 26.4199 33.7148 26.4199Q31.5527 26.4199 29.751 25.7432Q27.9492 25.0664 26.6133 23.748Q25.2773 22.4297 24.5479 20.4961Q23.8184 18.5625 23.8184 16.0664Q23.8184 12.7617 25.0225 10.4766Q26.2266 8.19141 28.4678 6.99609Q30.709 5.80078 33.8203 5.80078Q36.6855 5.80078 38.918 6.99609Q41.1504 8.19141 42.4248 10.4766Q43.6992 12.7617 43.6992 16.0664ZM30.7969 16.0664Q30.7969 17.7715 31.0957 18.9404Q31.3945 20.1094 32.0537 20.7158Q32.7129 21.3223 33.7852 21.3223Q34.8574 21.3223 35.4902 20.7158Q36.123 20.1094 36.4131 18.9404Q36.7031 17.7715 36.7031 16.0664Q36.7031 14.3613 36.4131 13.2188Q36.123 12.0762 35.4814 11.4961Q34.8398 10.916 33.75 10.916Q32.1855 10.916 31.4912 12.2168Q30.7969 13.5176 30.7969 16.0664ZM73.793 6.15234L73.793 26.0684L67.6758 26.0684L67.6758 16.418Q67.6758 14.9941 67.7285 13.623Q67.7812 12.252 67.8867 11.0918L67.7812 11.0918L63.0703 26.0684L58.3945 26.0684L53.666 11.0566L53.5605 11.0566Q53.666 12.2344 53.7188 13.5879Q53.7715 14.9414 53.7715 16.5586L53.7715 26.0684L47.6543 26.0684L47.6543 6.15234L57.0234 6.15234L60.7676 18.2285L64.582 6.15234L73.793 6.15234ZM99.7383 5.69531Q98.5078 5.69531 97.541 6.21387Q96.5742 6.73242 95.8887 7.7168Q95.2031 8.70117 94.8428 10.1162Q94.4824 11.5312 94.4824 13.3242Q94.4824 15.75 95.0977 17.4023Q95.7129 19.0547 96.9697 19.8984Q98.2266 20.7422 100.125 20.7422Q101.848 20.7422 103.438 20.2676Q105.029 19.793 106.646 19.125L106.646 24.9961Q104.941 25.752 103.157 26.0859Q101.373 26.4199 99.3691 26.4199Q95.1855 26.4199 92.5225 24.7588Q89.8594 23.0977 88.6025 20.1445Q87.3457 17.1914 87.3457 13.2891Q87.3457 10.3711 88.1631 7.94531Q88.9805 5.51953 90.5625 3.73535Q92.1445 1.95117 94.4736 0.975586Q96.8027 0 99.8086 0Q101.672 0 103.737 0.430664Q105.803 0.861328 107.771 1.81055L105.645 7.27734Q104.238 6.60938 102.797 6.15234Q101.355 5.69531 99.7383 5.69531ZM130.148 6.15234L130.148 26.0684L123.275 26.0684L123.275 11.2676L118.125 11.2676L118.125 26.0684L111.252 26.0684L111.252 6.15234L130.148 6.15234ZM144.633 5.80078Q148.412 5.80078 150.539 7.67285Q152.666 9.54492 152.666 13.0078L152.666 26.0684L147.902 26.0684L146.584 23.4316L146.443 23.4316Q145.6 24.4863 144.712 25.1455Q143.824 25.8047 142.682 26.1123Q141.539 26.4199 139.887 26.4199Q138.164 26.4199 136.793 25.7168Q135.422 25.0137 134.631 23.5898Q133.84 22.166 133.84 19.9863Q133.84 16.7871 136.055 15.2402Q138.27 13.6934 142.471 13.5L145.793 13.3945L145.793 13.1133Q145.793 11.7773 145.134 11.2148Q144.475 10.6523 143.367 10.6523Q142.189 10.6523 140.739 11.0654Q139.289 11.4785 137.83 12.1289L135.844 7.59375Q137.566 6.71484 139.746 6.25781Q141.926 5.80078 144.633 5.80078ZM145.828 17.1738L144.246 17.2441Q142.348 17.3145 141.583 17.9033Q140.818 18.4922 140.818 19.582Q140.818 20.6016 141.363 21.085Q141.908 21.5684 142.805 21.5684Q144.053 21.5684 144.94 20.7773Q145.828 19.9863 145.828 18.7207L145.828 17.1738ZM164.215 6.15234L164.215 13.3242L169.664 13.3242L169.664 6.15234L176.537 6.15234L176.537 26.0684L169.664 26.0684L169.664 18.4395L164.215 18.4395L164.215 26.0684L157.342 26.0684L157.342 6.15234L164.215 6.15234Z" fill="#0C1A37" fill-opacity="1.000000" fill-rule="evenodd"/>
</svg>
