<svg width="17.572266" height="33.370605" viewBox="0 0 17.5723 33.3706" fill="none" xmlns="http://www.w3.org/2000/svg" xmlns:xlink="http://www.w3.org/1999/xlink">
	<desc>
			Created with Pixso.
	</desc>
	<defs/>
	<path id="Vector" d="M15.3066 0.395508L0.408203 15.679C0.146484 15.9475 0 16.3076 0 16.6824C0 17.0574 0.146484 17.4175 0.408203 17.6858L15.3066 32.9751C15.4277 33.1003 15.5742 33.1997 15.7344 33.2676C15.8965 33.3357 16.0684 33.3706 16.2441 33.3706C16.418 33.3706 16.5918 33.3357 16.752 33.2676C16.9141 33.1997 17.0586 33.1003 17.1816 32.9751C17.4316 32.7183 17.5723 32.3738 17.5723 32.0149C17.5723 31.656 17.4316 31.3113 17.1816 31.0547L3.17188 16.6824L17.1816 2.31323C17.4316 2.05664 17.5703 1.71265 17.5703 1.35449C17.5703 0.996094 17.4316 0.6521 17.1816 0.395508C17.0586 0.270264 16.9141 0.170898 16.752 0.103027C16.5918 0.0349121 16.418 0 16.2441 0C16.0684 0 15.8965 0.0349121 15.7344 0.103027C15.5742 0.170898 15.4277 0.270264 15.3066 0.395508Z" fill="#0C1A37" fill-opacity="1.000000" fill-rule="nonzero"/>
</svg>
