<svg width="17.572266" height="33.370605" viewBox="0 0 17.5723 33.3706" fill="none" xmlns="http://www.w3.org/2000/svg" xmlns:xlink="http://www.w3.org/1999/xlink">
	<desc>
			Created with Pixso.
	</desc>
	<defs/>
	<path id="Vector" d="M2.26562 32.9751L17.1641 17.6917C17.4258 17.4231 17.5723 17.063 17.5723 16.6882C17.5723 16.3132 17.4258 15.9531 17.1641 15.6848L2.26562 0.395508C2.14453 0.270264 1.99805 0.170898 1.83789 0.103027C1.67578 0.0349121 1.50391 0 1.32812 0C1.1543 0 0.980469 0.0349121 0.820312 0.103027C0.658203 0.170898 0.513672 0.270264 0.390625 0.395508C0.140625 0.652344 0 0.996826 0 1.35571C0 1.7146 0.140625 2.05933 0.390625 2.31592L14.4004 16.6882L0.390625 31.0574C0.140625 31.314 0.00195312 31.658 0.00195312 32.0161C0.00195312 32.3745 0.140625 32.7185 0.390625 32.9751C0.513672 33.1003 0.658203 33.1997 0.820312 33.2676C0.980469 33.3357 1.1543 33.3706 1.32812 33.3706C1.50391 33.3706 1.67578 33.3357 1.83789 33.2676C1.99805 33.1997 2.14453 33.1003 2.26562 32.9751Z" fill="#0C1A37" fill-opacity="1.000000" fill-rule="nonzero"/>
</svg>
