<svg width="23.399902" height="27.000000" viewBox="0 0 23.3999 27" fill="none" xmlns="http://www.w3.org/2000/svg" xmlns:xlink="http://www.w3.org/1999/xlink">
	<desc>
			Created with Pixso.
	</desc>
	<defs/>
	<path id="Vector" d="M2.69995 11.7L2.69995 10.8L1.80005 10.8L1.80005 11.7L2.69995 11.7ZM9.8999 11.7L9.8999 10.8L9 10.8L9 11.7L9.8999 11.7ZM9.8999 18.8999L9 18.8999L9 19.8L9.8999 19.8L9.8999 18.8999ZM22.5 6.30005L23.3999 6.30005L23.3999 5.92749L23.1372 5.66284L22.5 6.30005ZM17.1001 0.899902L17.7373 0.262695L17.4727 0L17.1001 0L17.1001 0.899902ZM2.69995 12.6001L4.5 12.6001L4.5 10.8L2.69995 10.8L2.69995 12.6001ZM3.6001 19.8L3.6001 15.3L1.80005 15.3L1.80005 19.8L3.6001 19.8ZM3.6001 15.3L3.6001 11.7L1.80005 11.7L1.80005 15.3L3.6001 15.3ZM4.5 14.3999L2.69995 14.3999L2.69995 16.2L4.5 16.2L4.5 14.3999ZM5.3999 13.5C5.3999 13.7388 5.30518 13.9675 5.13647 14.1365C4.96753 14.3052 4.73877 14.3999 4.5 14.3999L4.5 16.2C5.21606 16.2 5.90283 15.9155 6.40918 15.4092C6.91553 14.9028 7.19995 14.2161 7.19995 13.5L5.3999 13.5ZM4.5 12.6001C4.73877 12.6001 4.96753 12.6948 5.13647 12.8635C5.30518 13.0325 5.3999 13.2612 5.3999 13.5L7.19995 13.5C7.19995 12.7839 6.91553 12.0972 6.40918 11.5908C5.90283 11.0845 5.21606 10.8 4.5 10.8L4.5 12.6001ZM9 11.7L9 18.8999L10.8 18.8999L10.8 11.7L9 11.7ZM9.8999 19.8L11.7 19.8L11.7 18L9.8999 18L9.8999 19.8ZM14.3999 17.1001L14.3999 13.5L12.6001 13.5L12.6001 17.1001L14.3999 17.1001ZM11.7 10.8L9.8999 10.8L9.8999 12.6001L11.7 12.6001L11.7 10.8ZM14.3999 13.5C14.3999 12.7839 14.1155 12.0972 13.6091 11.5908C13.1028 11.0845 12.416 10.8 11.7 10.8L11.7 12.6001C11.9387 12.6001 12.1677 12.6948 12.3364 12.8635C12.5051 13.0325 12.6001 13.2612 12.6001 13.5L14.3999 13.5ZM11.7 19.8C12.416 19.8 13.1028 19.5156 13.6091 19.0093C14.1155 18.5029 14.3999 17.8162 14.3999 17.1001L12.6001 17.1001C12.6001 17.3386 12.5051 17.5676 12.3364 17.7363C12.1677 17.9053 11.9387 18 11.7 18L11.7 19.8ZM16.2 10.8L16.2 19.8L18 19.8L18 10.8L16.2 10.8ZM17.1001 12.6001L21.6001 12.6001L21.6001 10.8L17.1001 10.8L17.1001 12.6001ZM17.1001 16.2L19.8 16.2L19.8 14.3999L17.1001 14.3999L17.1001 16.2ZM1.80005 9L1.80005 2.69995L0 2.69995L0 9L1.80005 9ZM21.6001 6.30005L21.6001 9L23.3999 9L23.3999 6.30005L21.6001 6.30005ZM2.69995 1.80005L17.1001 1.80005L17.1001 0L2.69995 0L2.69995 1.80005ZM16.4629 1.53711L21.8628 6.93726L23.1372 5.66284L17.7373 0.262695L16.4629 1.53711ZM1.80005 2.69995C1.80005 2.46143 1.89478 2.23242 2.06372 2.06372C2.23242 1.89478 2.46143 1.80005 2.69995 1.80005L2.69995 0C1.98389 0 1.29712 0.284424 0.790771 0.790771C0.284424 1.29712 0 1.98389 0 2.69995L1.80005 2.69995ZM0 21.6001L0 24.3L1.80005 24.3L1.80005 21.6001L0 21.6001ZM2.69995 27L20.7 27L20.7 25.2L2.69995 25.2L2.69995 27ZM23.3999 24.3L23.3999 21.6001L21.6001 21.6001L21.6001 24.3L23.3999 24.3ZM20.7 27C21.416 27 22.1028 26.7156 22.6091 26.2092C23.1155 25.7029 23.3999 25.0161 23.3999 24.3L21.6001 24.3C21.6001 24.5386 21.5051 24.7676 21.3364 24.9363C21.1677 25.1052 20.9387 25.2 20.7 25.2L20.7 27ZM0 24.3C0 25.0161 0.284424 25.7029 0.790771 26.2092C1.29712 26.7156 1.98389 27 2.69995 27L2.69995 25.2C2.46143 25.2 2.23242 25.1052 2.06372 24.9363C1.89478 24.7676 1.80005 24.5386 1.80005 24.3L0 24.3Z" fill="#0C1A37" fill-opacity="1.000000" fill-rule="nonzero"/>
</svg>
