<svg width="22.000000" height="22.000000" viewBox="0 0 22 22" fill="none" xmlns="http://www.w3.org/2000/svg" xmlns:xlink="http://www.w3.org/1999/xlink">
	<desc>
			Created with Pixso.
	</desc>
	<defs>
		<clipPath id="clip201_134">
			<rect id="material-symbols-light:search" width="22.000000" height="22.000000" fill="white" fill-opacity="0"/>
		</clipPath>
	</defs>
	<rect id="material-symbols-light:search" width="22.000000" height="22.000000" fill="#FFFFFF" fill-opacity="0"/>
	<g clip-path="url(#clip201_134)">
		<path id="Vector" d="M17.8613 18.4746L12.1211 12.7344C11.6621 13.125 11.1348 13.4272 10.5391 13.6411C9.94336 13.855 9.34375 13.9619 8.74219 13.9619C7.27539 13.9619 6.0332 13.4536 5.01562 12.4375C3.99805 11.4204 3.49023 10.1787 3.49023 8.71143C3.49023 7.24414 3.99805 6.00146 5.01367 4.9834C6.0293 3.96436 7.27148 3.45508 8.73828 3.45508C10.207 3.45508 11.4492 3.96338 12.4688 4.98047C13.4863 5.99707 13.9961 7.24023 13.9961 8.7085C13.9961 9.34521 13.8828 9.96143 13.6562 10.5576C13.4316 11.1533 13.1348 11.6631 12.7676 12.0864L18.5078 17.8257L17.8613 18.4746ZM8.74219 13.0444C9.95898 13.0444 10.9863 12.6255 11.8242 11.7886C12.6602 10.9512 13.0801 9.92432 13.0801 8.70752C13.0801 7.4917 12.6602 6.46484 11.8242 5.62744C10.9863 4.79053 9.95898 4.37158 8.74414 4.37158C7.52734 4.37158 6.5 4.79053 5.66211 5.62744C4.82617 6.46484 4.40625 7.4917 4.40625 8.70752C4.40625 9.92383 4.82617 10.9502 5.66211 11.7876C6.5 12.625 7.52734 13.0444 8.74219 13.0444Z" fill="#0C1A37" fill-opacity="1.000000" fill-rule="nonzero"/>
	</g>
</svg>
