<svg width="44.000000" height="44.000000" viewBox="0 0 44 44" fill="none" xmlns="http://www.w3.org/2000/svg" xmlns:xlink="http://www.w3.org/1999/xlink">
	<defs>
		<clipPath id="clip70_673">
			<rect id="ic:baseline-phone" rx="7.000000" width="28.540541" height="28.540541" transform="translate(8.324219 7.135742)" fill="white" fill-opacity="0"/>
		</clipPath>
	</defs>
	<rect id="ic:baseline-phone" rx="7.000000" width="28.540541" height="28.540541" transform="translate(8.324219 7.135742)" fill="#FFFFFF" fill-opacity="0"/>
	<g clip-path="url(#clip70_673)">
		<path id="Vector" d="M16.1973 19.9668C17.9102 23.3325 20.668 26.0791 24.0352 27.8037L26.6504 25.1875C26.9707 24.8662 27.4473 24.7593 27.8633 24.9019C29.1953 25.3423 30.6348 25.5801 32.1094 25.5801C32.7637 25.5801 33.2988 26.1152 33.2988 26.769L33.2988 30.9194C33.2988 31.5732 32.7637 32.1084 32.1094 32.1084C20.9414 32.1084 11.8926 23.0586 11.8926 11.8921C11.8926 11.2383 12.4277 10.7031 13.082 10.7031L17.2441 10.7031C17.8984 10.7031 18.4336 11.2383 18.4336 11.8921C18.4336 13.3789 18.6719 14.8057 19.1113 16.1377C19.2422 16.5537 19.1465 17.0176 18.8145 17.3506L16.1973 19.9668Z" fill="#0C1A37" fill-opacity="1.000000" fill-rule="nonzero"/>
	</g>
	<rect id="Rectangle 270" x="0.500000" y="0.500000" rx="7.000000" width="43.000000" height="43.000000" stroke="#0C1A37" stroke-opacity="1.000000" stroke-width="1.000000"/>
</svg>
